<svg width="40" height="40" viewBox="0 0 40 40" fill="none" xmlns="http://www.w3.org/2000/svg">
  <!-- Ship hull - offline state (gray) -->
  <path d="M8 28C8 28 12 32 20 32C28 32 32 28 32 28L30 24H10L8 28Z" fill="#6B7280" stroke="#4B5563" stroke-width="2"/>
  
  <!-- Ship deck -->
  <rect x="10" y="20" width="20" height="4" rx="2" fill="#9CA3AF"/>
  
  <!-- Ship mast -->
  <line x1="20" y1="8" x2="20" y2="20" stroke="#374151" stroke-width="2"/>
  
  <!-- Ship sail -->
  <path d="M20 8L28 12L20 16V8Z" fill="#E5E7EB" stroke="#9CA3AF" stroke-width="1"/>
  
  <!-- Ship flag - offline (gray) -->
  <path d="M20 8L26 10L20 12V8Z" fill="#6B7280"/>
  
  <!-- Ship cabin -->
  <rect x="16" y="16" width="8" height="4" rx="1" fill="#4B5563"/>
  
  <!-- Ship windows - offline (dark) -->
  <circle cx="18" cy="18" r="1" fill="#374151"/>
  <circle cx="22" cy="18" r="1" fill="#374151"/>
  
  <!-- Offline indicator -->
  <circle cx="32" cy="12" r="3" fill="#EF4444"/>
  <circle cx="32" cy="12" r="2" fill="#F87171"/>
  
  <!-- Offline cross -->
  <line x1="30" y1="10" x2="34" y2="14" stroke="#FFFFFF" stroke-width="1"/>
  <line x1="34" y1="10" x2="30" y2="14" stroke="#FFFFFF" stroke-width="1"/>
  
  <!-- Water waves -->
  <path d="M2 34C6 32 10 36 14 34C18 32 22 36 26 34C30 32 34 36 38 34" stroke="#9CA3AF" stroke-width="2" fill="none"/>
  <path d="M2 36C6 34 10 38 14 36C18 34 22 38 26 36C30 34 34 38 38 36" stroke="#6B7280" stroke-width="1.5" fill="none"/>
</svg>
